<svg width="168" height="168" viewBox="0 0 168 168" fill="none" xmlns="http://www.w3.org/2000/svg">
<path d="M94 134C127.137 134 154 107.137 154 74C154 40.8629 127.137 14 94 14C60.8629 14 34 40.8629 34 74C34 107.137 60.8629 134 94 134Z" fill="#26282C"/>
<path d="M16.09 77.96C14.97 82 14.25 86.21 14 90.55L77.45 154C81.79 153.75 86 153.03 90.04 151.91L16.09 77.96Z" fill="#FCFCFD"/>
<path d="M73.9495 34C49.4295 34 28.3495 48.71 19.0195 69.77L98.2295 148.98C119.3 139.65 134 118.58 134 94.05C134 60.89 107.11 34 73.9495 34Z" fill="#FCFCFD"/>
<path d="M14.4395 102.1C18.0195 128.83 39.1695 149.97 65.8995 153.56L14.4395 102.1Z" fill="#FCFCFD"/>
</svg>
