<svg width="140" height="140" viewBox="0 0 140 140" fill="none" xmlns="http://www.w3.org/2000/svg">
<g clip-path="url(#clip0_755_2584)">
<path d="M80 120C113.137 120 140 93.1371 140 60C140 26.8629 113.137 0 80 0C46.8629 0 20 26.8629 20 60C20 93.1371 46.8629 120 80 120Z" fill="#FEE6EC"/>
<path d="M2.09 63.96C0.97 68 0.25 72.21 0 76.55L63.45 140C67.79 139.75 72 139.03 76.04 137.91L2.09 63.96Z" fill="#131416"/>
<path d="M59.9495 20C35.4295 20 14.3495 34.71 5.01953 55.77L84.2295 134.98C105.3 125.65 120 104.58 120 80.05C120 46.89 93.1095 20 59.9495 20Z" fill="#131416"/>
<path d="M0.439453 88.1001C4.01945 114.83 25.1695 135.97 51.8995 139.56L0.439453 88.1001Z" fill="#131416"/>
</g>
<defs>
<clipPath id="clip0_755_2584">
<rect width="140" height="140" fill="white"/>
</clipPath>
</defs>
</svg>
