<svg width="42" height="42" viewBox="0 0 42 42" fill="none" xmlns="http://www.w3.org/2000/svg">
<g clip-path="url(#clip0_811_2658)">
<path d="M23.5712 33.8571C32.0921 33.8571 38.9997 26.9495 38.9997 18.4286C38.9997 9.90761 32.0921 3 23.5712 3C15.0502 3 8.14258 9.90761 8.14258 18.4286C8.14258 26.9495 15.0502 33.8571 23.5712 33.8571Z" fill="#FCE8F2"/>
<path d="M3.53743 19.4473C3.24943 20.4861 3.06429 21.5687 3 22.6847L19.3157 39.0004C20.4317 38.9361 21.5143 38.751 22.5531 38.463L3.53743 19.4473Z" fill="#131416"/>
<path d="M18.4159 8.14307C12.1107 8.14307 6.69016 11.9256 4.29102 17.3411L24.6593 37.7094C30.0773 35.3102 33.8573 29.8922 33.8573 23.5845C33.8573 15.0576 26.9427 8.14307 18.4159 8.14307Z" fill="#131416"/>
<path d="M3.11328 25.6543C4.03385 32.5277 9.47243 37.9637 16.3459 38.8869L3.11328 25.6543Z" fill="#131416"/>
</g>
<defs>
<clipPath id="clip0_811_2658">
<rect width="36" height="36" fill="white" transform="translate(3 3)"/>
</clipPath>
</defs>
</svg>
