<svg width="20" height="20" viewBox="0 0 20 20" fill="none" xmlns="http://www.w3.org/2000/svg">
<path d="M10 11.4223L5.7057 15.7169C5.5168 15.9056 5.2797 16 4.99441 16C4.70912 16 4.47203 15.9056 4.28313 15.7169C4.09438 15.528 4 15.2909 4 15.0056C4 14.7203 4.09438 14.4832 4.28313 14.2943L8.57765 10L4.28313 5.7057C4.09438 5.5168 4 5.2797 4 4.99441C4 4.70912 4.09438 4.47203 4.28313 4.28313C4.47203 4.09438 4.70912 4 4.99441 4C5.2797 4 5.5168 4.09438 5.7057 4.28313L10 8.57765L14.2943 4.28313C14.4832 4.09438 14.7203 4 15.0056 4C15.2909 4 15.528 4.09438 15.7169 4.28313C15.9056 4.47203 16 4.70912 16 4.99441C16 5.2797 15.9056 5.5168 15.7169 5.7057L11.4223 10L15.7169 14.2943C15.9056 14.4832 16 14.7203 16 15.0056C16 15.2909 15.9056 15.528 15.7169 15.7169C15.528 15.9056 15.2909 16 15.0056 16C14.7203 16 14.4832 15.9056 14.2943 15.7169L10 11.4223Z" fill="#FCFCFD"/>
</svg>
