<svg width="800" height="32" viewBox="0 0 800 32" fill="none" xmlns="http://www.w3.org/2000/svg">
<rect width="152" height="32" rx="4" fill="#F5A3DA"/>
<path d="M45.3608 20.5V11.7727H51.0369V13.098H46.9418V15.4673H50.7429V16.7926H46.9418V19.1747H51.071V20.5H45.3608ZM52.7017 20.5V13.9545H54.1761V15.0668H54.2528C54.3892 14.6918 54.615 14.3991 54.9304 14.1889C55.2457 13.9759 55.6221 13.8693 56.0596 13.8693C56.5028 13.8693 56.8764 13.9773 57.1804 14.1932C57.4872 14.4062 57.7031 14.6974 57.8281 15.0668H57.8963C58.0412 14.7031 58.2855 14.4134 58.6292 14.1974C58.9758 13.9787 59.3863 13.8693 59.8608 13.8693C60.463 13.8693 60.9545 14.0597 61.3352 14.4403C61.7159 14.821 61.9062 15.3764 61.9062 16.1065V20.5H60.3593V16.3452C60.3593 15.9389 60.2514 15.642 60.0355 15.4545C59.8196 15.2642 59.5554 15.169 59.2429 15.169C58.8707 15.169 58.5795 15.2855 58.3693 15.5185C58.1619 15.7486 58.0582 16.0483 58.0582 16.4176V20.5H56.5454V16.2812C56.5454 15.9432 56.4432 15.6733 56.2386 15.4716C56.0369 15.2699 55.7727 15.169 55.446 15.169C55.2244 15.169 55.0227 15.2259 54.8409 15.3395C54.6591 15.4503 54.5142 15.608 54.4062 15.8125C54.2983 16.0142 54.2443 16.25 54.2443 16.5199V20.5H52.7017ZM63.5912 22.9545V13.9545H65.1083V15.0369H65.1977C65.2773 14.8778 65.3895 14.7088 65.5344 14.5298C65.6793 14.348 65.8753 14.1932 66.1225 14.0653C66.3696 13.9347 66.685 13.8693 67.0685 13.8693C67.5742 13.8693 68.0301 13.9986 68.4364 14.2571C68.8455 14.5128 69.1693 14.892 69.408 15.3949C69.6494 15.8949 69.7702 16.5085 69.7702 17.2358C69.7702 17.9545 69.6523 18.5653 69.4165 19.0682C69.1807 19.571 68.8597 19.9545 68.4534 20.2188C68.0472 20.483 67.5869 20.6151 67.0727 20.6151C66.6977 20.6151 66.3867 20.5526 66.1395 20.4276C65.8923 20.3026 65.6935 20.152 65.5429 19.9759C65.3952 19.7969 65.2801 19.6278 65.1977 19.4688H65.1338V22.9545H63.5912ZM65.104 17.2273C65.104 17.6506 65.1637 18.0213 65.283 18.3395C65.4051 18.6577 65.5798 18.9062 65.8071 19.0852C66.0372 19.2614 66.3156 19.3494 66.6423 19.3494C66.9833 19.3494 67.2688 19.2585 67.4989 19.0767C67.729 18.892 67.9023 18.6406 68.0188 18.3224C68.1381 18.0014 68.1977 17.6364 68.1977 17.2273C68.1977 16.821 68.1395 16.4602 68.023 16.1449C67.9065 15.8295 67.7333 15.5824 67.5031 15.4034C67.273 15.2244 66.9861 15.1349 66.6423 15.1349C66.3128 15.1349 66.033 15.2216 65.8029 15.3949C65.5727 15.5682 65.398 15.8111 65.2787 16.1236C65.1622 16.4361 65.104 16.804 65.104 17.2273ZM73.0947 20.6321C72.68 20.6321 72.3064 20.5582 71.974 20.4105C71.6444 20.2599 71.3831 20.0384 71.1899 19.7457C70.9996 19.4531 70.9044 19.0923 70.9044 18.6634C70.9044 18.294 70.9726 17.9886 71.1089 17.7472C71.2453 17.5057 71.4314 17.3125 71.6672 17.1676C71.903 17.0227 72.1686 16.9134 72.464 16.8395C72.7623 16.7628 73.0706 16.7074 73.3888 16.6733C73.7723 16.6335 74.0834 16.598 74.322 16.5668C74.5606 16.5327 74.7339 16.4815 74.8419 16.4134C74.9527 16.3423 75.0081 16.233 75.0081 16.0852V16.0597C75.0081 15.7386 74.9129 15.4901 74.7226 15.3139C74.5322 15.1378 74.2581 15.0497 73.9001 15.0497C73.5223 15.0497 73.2226 15.1321 73.001 15.2969C72.7822 15.4616 72.6345 15.6562 72.5578 15.8807L71.1175 15.6761C71.2311 15.2784 71.4186 14.946 71.68 14.679C71.9413 14.4091 72.2609 14.2074 72.6388 14.0739C73.0166 13.9375 73.4342 13.8693 73.8916 13.8693C74.2069 13.8693 74.5209 13.9062 74.8334 13.9801C75.1459 14.054 75.4314 14.1761 75.6899 14.3466C75.9484 14.5142 76.1558 14.7429 76.3121 15.0327C76.4712 15.3224 76.5507 15.6847 76.5507 16.1193V20.5H75.0677V19.6009H75.0166C74.9229 19.7827 74.7908 19.9531 74.6203 20.1122C74.4527 20.2685 74.241 20.3949 73.9854 20.4915C73.7325 20.5852 73.4356 20.6321 73.0947 20.6321ZM73.4953 19.4986C73.805 19.4986 74.0734 19.4375 74.3007 19.3153C74.528 19.1903 74.7027 19.0256 74.8248 18.821C74.9498 18.6165 75.0123 18.3935 75.0123 18.152V17.3807C74.964 17.4205 74.8817 17.4574 74.7652 17.4915C74.6515 17.5256 74.5237 17.5554 74.3817 17.581C74.2396 17.6065 74.099 17.6293 73.9598 17.6491C73.8206 17.669 73.6998 17.6861 73.5976 17.7003C73.3675 17.7315 73.1615 17.7827 72.9797 17.8537C72.7979 17.9247 72.6544 18.0241 72.5493 18.152C72.4442 18.277 72.3916 18.4389 72.3916 18.6378C72.3916 18.9219 72.4953 19.1364 72.7027 19.2812C72.9101 19.4261 73.1743 19.4986 73.4953 19.4986ZM81.4903 13.9545V15.1477H77.7275V13.9545H81.4903ZM78.6565 12.3864H80.1991V18.5312C80.1991 18.7386 80.2304 18.8977 80.2929 19.0085C80.3582 19.1165 80.4434 19.1903 80.5485 19.2301C80.6537 19.2699 80.7701 19.2898 80.898 19.2898C80.9946 19.2898 81.0826 19.2827 81.1622 19.2685C81.2446 19.2543 81.3071 19.2415 81.3497 19.2301L81.6096 20.4361C81.5272 20.4645 81.4093 20.4957 81.2559 20.5298C81.1054 20.5639 80.9207 20.5838 80.7019 20.5895C80.3156 20.6009 79.9676 20.5426 79.6579 20.4148C79.3483 20.2841 79.1025 20.0824 78.9207 19.8097C78.7417 19.5369 78.6537 19.196 78.6565 18.7869V12.3864ZM84.5837 16.6648V20.5H83.041V11.7727H84.5496V15.0668H84.6263C84.7797 14.6974 85.0169 14.4062 85.3379 14.1932C85.6618 13.9773 86.0737 13.8693 86.5737 13.8693C87.0283 13.8693 87.4246 13.9645 87.7626 14.1548C88.1007 14.3452 88.3621 14.6236 88.5467 14.9901C88.7342 15.3565 88.828 15.804 88.828 16.3324V20.5H87.2854V16.571C87.2854 16.1307 87.1717 15.7884 86.9445 15.544C86.72 15.2969 86.4047 15.1733 85.9984 15.1733C85.7257 15.1733 85.4814 15.233 85.2655 15.3523C85.0524 15.4687 84.8848 15.6378 84.7626 15.8594C84.6433 16.081 84.5837 16.3494 84.5837 16.6648ZM90.5204 20.5V13.9545H92.063V20.5H90.5204ZM91.296 13.0256C91.0517 13.0256 90.8415 12.9446 90.6653 12.7827C90.4892 12.6179 90.4011 12.4205 90.4011 12.1903C90.4011 11.9574 90.4892 11.7599 90.6653 11.598C90.8415 11.4332 91.0517 11.3509 91.296 11.3509C91.5432 11.3509 91.7534 11.4332 91.9267 11.598C92.1028 11.7599 92.1909 11.9574 92.1909 12.1903C92.1909 12.4205 92.1028 12.6179 91.9267 12.7827C91.7534 12.9446 91.5432 13.0256 91.296 13.0256ZM93.6841 20.5V19.5199L97.0591 15.2884V15.233H93.7949V13.9545H98.9469V15.0071L95.7338 19.1662V19.2216H99.0577V20.5H93.6841ZM103.338 20.6278C102.682 20.6278 102.115 20.4915 101.638 20.2188C101.163 19.9432 100.798 19.554 100.542 19.0511C100.287 18.5455 100.159 17.9503 100.159 17.2656C100.159 16.5923 100.287 16.0014 100.542 15.4929C100.801 14.9815 101.162 14.5838 101.625 14.2997C102.088 14.0128 102.632 13.8693 103.257 13.8693C103.66 13.8693 104.041 13.9347 104.399 14.0653C104.76 14.1932 105.078 14.392 105.353 14.6619C105.632 14.9318 105.851 15.2756 106.01 15.6932C106.169 16.108 106.248 16.6023 106.248 17.1761V17.6491H100.883V16.6094H104.77C104.767 16.3139 104.703 16.0511 104.578 15.821C104.453 15.5881 104.278 15.4048 104.054 15.2713C103.832 15.1378 103.574 15.071 103.278 15.071C102.963 15.071 102.686 15.1477 102.447 15.3011C102.209 15.4517 102.022 15.6506 101.889 15.8977C101.758 16.142 101.692 16.4105 101.689 16.7031V17.6108C101.689 17.9915 101.758 18.3182 101.897 18.5909C102.037 18.8608 102.231 19.0682 102.481 19.2131C102.731 19.3551 103.024 19.4261 103.359 19.4261C103.584 19.4261 103.787 19.3949 103.969 19.3324C104.15 19.267 104.308 19.1719 104.442 19.0469C104.575 18.9219 104.676 18.767 104.744 18.5824L106.184 18.7443C106.094 19.125 105.92 19.4574 105.665 19.7415C105.412 20.0227 105.088 20.2415 104.693 20.3977C104.298 20.5511 103.846 20.6278 103.338 20.6278Z" fill="black" fill-opacity="0.87"/>
<rect x="162" width="152" height="32" rx="4" fill="#F6B1DF"/>
<path d="M222.318 20.5H219.361V11.7727H222.378C223.244 11.7727 223.989 11.9474 224.611 12.2969C225.236 12.6435 225.716 13.142 226.051 13.7926C226.386 14.4432 226.554 15.2216 226.554 16.1278C226.554 17.0369 226.385 17.8182 226.047 18.4716C225.712 19.125 225.227 19.6264 224.594 19.9759C223.963 20.3253 223.205 20.5 222.318 20.5ZM220.942 19.1321H222.241C222.849 19.1321 223.357 19.0213 223.763 18.7997C224.169 18.5753 224.474 18.2415 224.679 17.7983C224.884 17.3523 224.986 16.7955 224.986 16.1278C224.986 15.4602 224.884 14.9062 224.679 14.4659C224.474 14.0227 224.172 13.6918 223.771 13.473C223.374 13.2514 222.879 13.1406 222.288 13.1406H220.942V19.1321ZM231.006 20.6278C230.349 20.6278 229.783 20.4915 229.305 20.2188C228.831 19.9432 228.466 19.554 228.21 19.0511C227.955 18.5455 227.827 17.9503 227.827 17.2656C227.827 16.5923 227.955 16.0014 228.21 15.4929C228.469 14.9815 228.83 14.5838 229.293 14.2997C229.756 14.0128 230.3 13.8693 230.925 13.8693C231.328 13.8693 231.709 13.9347 232.067 14.0653C232.428 14.1932 232.746 14.392 233.021 14.6619C233.3 14.9318 233.518 15.2756 233.678 15.6932C233.837 16.108 233.916 16.6023 233.916 17.1761V17.6491H228.551V16.6094H232.437C232.435 16.3139 232.371 16.0511 232.246 15.821C232.121 15.5881 231.946 15.4048 231.722 15.2713C231.5 15.1378 231.241 15.071 230.946 15.071C230.631 15.071 230.354 15.1477 230.115 15.3011C229.876 15.4517 229.69 15.6506 229.557 15.8977C229.426 16.142 229.359 16.4105 229.357 16.7031V17.6108C229.357 17.9915 229.426 18.3182 229.565 18.5909C229.705 18.8608 229.899 19.0682 230.149 19.2131C230.399 19.3551 230.692 19.4261 231.027 19.4261C231.251 19.4261 231.455 19.3949 231.636 19.3324C231.818 19.267 231.976 19.1719 232.109 19.0469C232.243 18.9219 232.344 18.767 232.412 18.5824L233.852 18.7443C233.761 19.125 233.588 19.4574 233.332 19.7415C233.08 20.0227 232.756 20.2415 232.361 20.3977C231.966 20.5511 231.514 20.6278 231.006 20.6278ZM238.657 13.9545V15.1477H234.787V13.9545H238.657ZM235.755 20.5V13.3366C235.755 12.8963 235.845 12.5298 236.027 12.2372C236.212 11.9446 236.459 11.7259 236.769 11.581C237.078 11.4361 237.422 11.3636 237.8 11.3636C238.067 11.3636 238.304 11.3849 238.512 11.4276C238.719 11.4702 238.872 11.5085 238.972 11.5426L238.665 12.7358C238.6 12.7159 238.517 12.696 238.418 12.6761C238.318 12.6534 238.208 12.642 238.086 12.642C237.799 12.642 237.595 12.7116 237.476 12.8509C237.36 12.9872 237.301 13.1832 237.301 13.4389V20.5H235.755ZM239.985 20.5V13.9545H241.527V20.5H239.985ZM240.76 13.0256C240.516 13.0256 240.306 12.9446 240.13 12.7827C239.953 12.6179 239.865 12.4205 239.865 12.1903C239.865 11.9574 239.953 11.7599 240.13 11.598C240.306 11.4332 240.516 11.3509 240.76 11.3509C241.007 11.3509 241.218 11.4332 241.391 11.598C241.567 11.7599 241.655 11.9574 241.655 12.1903C241.655 12.4205 241.567 12.6179 241.391 12.7827C241.218 12.9446 241.007 13.0256 240.76 13.0256ZM244.776 16.6648V20.5H243.234V13.9545H244.708V15.0668H244.785C244.935 14.7003 245.175 14.4091 245.505 14.1932C245.837 13.9773 246.248 13.8693 246.736 13.8693C247.188 13.8693 247.582 13.9659 247.917 14.1591C248.255 14.3523 248.516 14.6321 248.701 14.9986C248.888 15.3651 248.981 15.8097 248.978 16.3324V20.5H247.435V16.571C247.435 16.1335 247.322 15.7912 247.094 15.544C246.87 15.2969 246.559 15.1733 246.161 15.1733C245.891 15.1733 245.651 15.233 245.441 15.3523C245.234 15.4687 245.07 15.6378 244.951 15.8594C244.834 16.081 244.776 16.3494 244.776 16.6648ZM253.564 20.6278C252.908 20.6278 252.341 20.4915 251.863 20.2188C251.389 19.9432 251.024 19.554 250.768 19.0511C250.513 18.5455 250.385 17.9503 250.385 17.2656C250.385 16.5923 250.513 16.0014 250.768 15.4929C251.027 14.9815 251.388 14.5838 251.851 14.2997C252.314 14.0128 252.858 13.8693 253.483 13.8693C253.886 13.8693 254.267 13.9347 254.625 14.0653C254.986 14.1932 255.304 14.392 255.579 14.6619C255.858 14.9318 256.077 15.2756 256.236 15.6932C256.395 16.108 256.474 16.6023 256.474 17.1761V17.6491H251.109V16.6094H254.996C254.993 16.3139 254.929 16.0511 254.804 15.821C254.679 15.5881 254.504 15.4048 254.28 15.2713C254.058 15.1378 253.8 15.071 253.504 15.071C253.189 15.071 252.912 15.1477 252.673 15.3011C252.435 15.4517 252.248 15.6506 252.115 15.8977C251.984 16.142 251.917 16.4105 251.915 16.7031V17.6108C251.915 17.9915 251.984 18.3182 252.123 18.5909C252.263 18.8608 252.457 19.0682 252.707 19.2131C252.957 19.3551 253.25 19.4261 253.585 19.4261C253.81 19.4261 254.013 19.3949 254.194 19.3324C254.376 19.267 254.534 19.1719 254.667 19.0469C254.801 18.9219 254.902 18.767 254.97 18.5824L256.41 18.7443C256.319 19.125 256.146 19.4574 255.89 19.7415C255.638 20.0227 255.314 20.2415 254.919 20.3977C254.524 20.5511 254.072 20.6278 253.564 20.6278Z" fill="black" fill-opacity="0.87"/>
<rect x="324" width="152" height="32" rx="4" fill="#F8BFE5"/>
<path d="M383.442 11.7727V20.5H381.861V11.7727H383.442ZM387.635 20.6151C387.12 20.6151 386.66 20.483 386.254 20.2188C385.848 19.9545 385.527 19.571 385.291 19.0682C385.055 18.5653 384.937 17.9545 384.937 17.2358C384.937 16.5085 385.056 15.8949 385.295 15.3949C385.537 14.892 385.862 14.5128 386.271 14.2571C386.68 13.9986 387.136 13.8693 387.639 13.8693C388.022 13.8693 388.338 13.9347 388.585 14.0653C388.832 14.1932 389.028 14.348 389.173 14.5298C389.318 14.7088 389.43 14.8778 389.51 15.0369H389.573V11.7727H391.12V20.5H389.603V19.4688H389.51C389.43 19.6278 389.315 19.7969 389.164 19.9759C389.014 20.152 388.815 20.3026 388.568 20.4276C388.321 20.5526 388.01 20.6151 387.635 20.6151ZM388.065 19.3494C388.392 19.3494 388.67 19.2614 388.9 19.0852C389.13 18.9062 389.305 18.6577 389.424 18.3395C389.544 18.0213 389.603 17.6506 389.603 17.2273C389.603 16.804 389.544 16.4361 389.424 16.1236C389.308 15.8111 389.135 15.5682 388.904 15.3949C388.677 15.2216 388.397 15.1349 388.065 15.1349C387.721 15.1349 387.434 15.2244 387.204 15.4034C386.974 15.5824 386.801 15.8295 386.684 16.1449C386.568 16.4602 386.51 16.821 386.51 17.2273C386.51 17.6364 386.568 18.0014 386.684 18.3224C386.804 18.6406 386.978 18.892 387.208 19.0767C387.441 19.2585 387.727 19.3494 388.065 19.3494ZM395.782 20.6278C395.126 20.6278 394.559 20.4915 394.082 20.2188C393.607 19.9432 393.242 19.554 392.986 19.0511C392.731 18.5455 392.603 17.9503 392.603 17.2656C392.603 16.5923 392.731 16.0014 392.986 15.4929C393.245 14.9815 393.606 14.5838 394.069 14.2997C394.532 14.0128 395.076 13.8693 395.701 13.8693C396.104 13.8693 396.485 13.9347 396.843 14.0653C397.204 14.1932 397.522 14.392 397.798 14.6619C398.076 14.9318 398.295 15.2756 398.454 15.6932C398.613 16.108 398.692 16.6023 398.692 17.1761V17.6491H393.327V16.6094H397.214C397.211 16.3139 397.147 16.0511 397.022 15.821C396.897 15.5881 396.722 15.4048 396.498 15.2713C396.276 15.1378 396.018 15.071 395.722 15.071C395.407 15.071 395.13 15.1477 394.891 15.3011C394.653 15.4517 394.467 15.6506 394.333 15.8977C394.202 16.142 394.136 16.4105 394.133 16.7031V17.6108C394.133 17.9915 394.202 18.3182 394.342 18.5909C394.481 18.8608 394.675 19.0682 394.925 19.2131C395.175 19.3551 395.468 19.4261 395.803 19.4261C396.028 19.4261 396.231 19.3949 396.413 19.3324C396.594 19.267 396.752 19.1719 396.886 19.0469C397.019 18.9219 397.12 18.767 397.188 18.5824L398.628 18.7443C398.538 19.125 398.364 19.4574 398.109 19.7415C397.856 20.0227 397.532 20.2415 397.137 20.3977C396.742 20.5511 396.29 20.6278 395.782 20.6278ZM402.001 20.6321C401.586 20.6321 401.213 20.5582 400.88 20.4105C400.551 20.2599 400.289 20.0384 400.096 19.7457C399.906 19.4531 399.811 19.0923 399.811 18.6634C399.811 18.294 399.879 17.9886 400.015 17.7472C400.152 17.5057 400.338 17.3125 400.573 17.1676C400.809 17.0227 401.075 16.9134 401.37 16.8395C401.669 16.7628 401.977 16.7074 402.295 16.6733C402.679 16.6335 402.99 16.598 403.228 16.5668C403.467 16.5327 403.64 16.4815 403.748 16.4134C403.859 16.3423 403.914 16.233 403.914 16.0852V16.0597C403.914 15.7386 403.819 15.4901 403.629 15.3139C403.438 15.1378 403.164 15.0497 402.806 15.0497C402.429 15.0497 402.129 15.1321 401.907 15.2969C401.688 15.4616 401.541 15.6562 401.464 15.8807L400.024 15.6761C400.137 15.2784 400.325 14.946 400.586 14.679C400.848 14.4091 401.167 14.2074 401.545 14.0739C401.923 13.9375 402.34 13.8693 402.798 13.8693C403.113 13.8693 403.427 13.9062 403.74 13.9801C404.052 14.054 404.338 14.1761 404.596 14.3466C404.855 14.5142 405.062 14.7429 405.218 15.0327C405.377 15.3224 405.457 15.6847 405.457 16.1193V20.5H403.974V19.6009H403.923C403.829 19.7827 403.697 19.9531 403.527 20.1122C403.359 20.2685 403.147 20.3949 402.892 20.4915C402.639 20.5852 402.342 20.6321 402.001 20.6321ZM402.402 19.4986C402.711 19.4986 402.98 19.4375 403.207 19.3153C403.434 19.1903 403.609 19.0256 403.731 18.821C403.856 18.6165 403.919 18.3935 403.919 18.152V17.3807C403.87 17.4205 403.788 17.4574 403.671 17.4915C403.558 17.5256 403.43 17.5554 403.288 17.581C403.146 17.6065 403.005 17.6293 402.866 17.6491C402.727 17.669 402.606 17.6861 402.504 17.7003C402.274 17.7315 402.068 17.7827 401.886 17.8537C401.704 17.9247 401.561 18.0241 401.456 18.152C401.35 18.277 401.298 18.4389 401.298 18.6378C401.298 18.9219 401.402 19.1364 401.609 19.2812C401.816 19.4261 402.081 19.4986 402.402 19.4986ZM410.397 13.9545V15.1477H406.634V13.9545H410.397ZM407.563 12.3864H409.105V18.5312C409.105 18.7386 409.137 18.8977 409.199 19.0085C409.264 19.1165 409.35 19.1903 409.455 19.2301C409.56 19.2699 409.676 19.2898 409.804 19.2898C409.901 19.2898 409.989 19.2827 410.068 19.2685C410.151 19.2543 410.213 19.2415 410.256 19.2301L410.516 20.4361C410.433 20.4645 410.316 20.4957 410.162 20.5298C410.012 20.5639 409.827 20.5838 409.608 20.5895C409.222 20.6009 408.874 20.5426 408.564 20.4148C408.255 20.2841 408.009 20.0824 407.827 19.8097C407.648 19.5369 407.56 19.196 407.563 18.7869V12.3864ZM414.634 20.6278C413.978 20.6278 413.411 20.4915 412.934 20.2188C412.459 19.9432 412.094 19.554 411.839 19.0511C411.583 18.5455 411.455 17.9503 411.455 17.2656C411.455 16.5923 411.583 16.0014 411.839 15.4929C412.097 14.9815 412.458 14.5838 412.921 14.2997C413.384 14.0128 413.928 13.8693 414.553 13.8693C414.957 13.8693 415.337 13.9347 415.695 14.0653C416.056 14.1932 416.374 14.392 416.65 14.6619C416.928 14.9318 417.147 15.2756 417.306 15.6932C417.465 16.108 417.545 16.6023 417.545 17.1761V17.6491H412.18V16.6094H416.066C416.063 16.3139 415.999 16.0511 415.874 15.821C415.749 15.5881 415.574 15.4048 415.35 15.2713C415.128 15.1378 414.87 15.071 414.574 15.071C414.259 15.071 413.982 15.1477 413.743 15.3011C413.505 15.4517 413.319 15.6506 413.185 15.8977C413.055 16.142 412.988 16.4105 412.985 16.7031V17.6108C412.985 17.9915 413.055 18.3182 413.194 18.5909C413.333 18.8608 413.528 19.0682 413.778 19.2131C414.028 19.3551 414.32 19.4261 414.655 19.4261C414.88 19.4261 415.083 19.3949 415.265 19.3324C415.447 19.267 415.604 19.1719 415.738 19.0469C415.871 18.9219 415.972 18.767 416.04 18.5824L417.481 18.7443C417.39 19.125 417.216 19.4574 416.961 19.7415C416.708 20.0227 416.384 20.2415 415.989 20.3977C415.594 20.5511 415.143 20.6278 414.634 20.6278Z" fill="black" fill-opacity="0.87"/>
<rect x="486" width="152" height="32" rx="4" fill="#F9CDEA"/>
<path d="M533.361 20.5V11.7727H536.634C537.304 11.7727 537.866 11.8977 538.321 12.1477C538.778 12.3977 539.124 12.7415 539.357 13.179C539.592 13.6136 539.71 14.108 539.71 14.6619C539.71 15.2216 539.592 15.7187 539.357 16.1534C539.121 16.5881 538.773 16.9304 538.312 17.1804C537.852 17.4276 537.286 17.5511 536.612 17.5511H534.443V16.2514H536.399C536.791 16.2514 537.112 16.1832 537.362 16.0469C537.612 15.9105 537.797 15.723 537.916 15.4844C538.038 15.2457 538.099 14.9716 538.099 14.6619C538.099 14.3523 538.038 14.0795 537.916 13.8438C537.797 13.608 537.611 13.4247 537.358 13.294C537.108 13.1605 536.786 13.0938 536.391 13.0938H534.942V20.5H533.361ZM541.135 20.5V13.9545H542.631V15.0455H542.699C542.819 14.6676 543.023 14.3764 543.313 14.1719C543.605 13.9645 543.939 13.8608 544.314 13.8608C544.399 13.8608 544.495 13.8651 544.6 13.8736C544.708 13.8793 544.797 13.8892 544.868 13.9034V15.3224C544.803 15.2997 544.699 15.2798 544.557 15.2628C544.418 15.2429 544.283 15.233 544.152 15.233C543.871 15.233 543.618 15.294 543.394 15.4162C543.172 15.5355 542.997 15.7017 542.87 15.9148C542.742 16.1278 542.678 16.3736 542.678 16.652V20.5H541.135ZM548.599 20.6278C547.959 20.6278 547.405 20.4872 546.937 20.206C546.468 19.9247 546.104 19.5312 545.846 19.0256C545.59 18.5199 545.462 17.929 545.462 17.2528C545.462 16.5767 545.59 15.9844 545.846 15.4759C546.104 14.9673 546.468 14.5724 546.937 14.2912C547.405 14.0099 547.959 13.8693 548.599 13.8693C549.238 13.8693 549.792 14.0099 550.261 14.2912C550.729 14.5724 551.092 14.9673 551.347 15.4759C551.606 15.9844 551.735 16.5767 551.735 17.2528C551.735 17.929 551.606 18.5199 551.347 19.0256C551.092 19.5312 550.729 19.9247 550.261 20.206C549.792 20.4872 549.238 20.6278 548.599 20.6278ZM548.607 19.392C548.954 19.392 549.244 19.2969 549.477 19.1065C549.709 18.9134 549.883 18.6548 549.996 18.331C550.113 18.0071 550.171 17.6463 550.171 17.2486C550.171 16.848 550.113 16.4858 549.996 16.1619C549.883 15.8352 549.709 15.5753 549.477 15.3821C549.244 15.1889 548.954 15.0923 548.607 15.0923C548.252 15.0923 547.957 15.1889 547.721 15.3821C547.488 15.5753 547.313 15.8352 547.197 16.1619C547.083 16.4858 547.026 16.848 547.026 17.2486C547.026 17.6463 547.083 18.0071 547.197 18.331C547.313 18.6548 547.488 18.9134 547.721 19.1065C547.957 19.2969 548.252 19.392 548.607 19.392ZM556.433 13.9545V15.1477H552.67V13.9545H556.433ZM553.599 12.3864H555.142V18.5312C555.142 18.7386 555.173 18.8977 555.235 19.0085C555.301 19.1165 555.386 19.1903 555.491 19.2301C555.596 19.2699 555.713 19.2898 555.84 19.2898C555.937 19.2898 556.025 19.2827 556.105 19.2685C556.187 19.2543 556.25 19.2415 556.292 19.2301L556.552 20.4361C556.47 20.4645 556.352 20.4957 556.198 20.5298C556.048 20.5639 555.863 20.5838 555.644 20.5895C555.258 20.6009 554.91 20.5426 554.6 20.4148C554.291 20.2841 554.045 20.0824 553.863 19.8097C553.684 19.5369 553.596 19.196 553.599 18.7869V12.3864ZM560.628 20.6278C559.989 20.6278 559.435 20.4872 558.966 20.206C558.497 19.9247 558.133 19.5312 557.875 19.0256C557.619 18.5199 557.491 17.929 557.491 17.2528C557.491 16.5767 557.619 15.9844 557.875 15.4759C558.133 14.9673 558.497 14.5724 558.966 14.2912C559.435 14.0099 559.989 13.8693 560.628 13.8693C561.267 13.8693 561.821 14.0099 562.29 14.2912C562.758 14.5724 563.121 14.9673 563.376 15.4759C563.635 15.9844 563.764 16.5767 563.764 17.2528C563.764 17.929 563.635 18.5199 563.376 19.0256C563.121 19.5312 562.758 19.9247 562.29 20.206C561.821 20.4872 561.267 20.6278 560.628 20.6278ZM560.636 19.392C560.983 19.392 561.273 19.2969 561.506 19.1065C561.739 18.9134 561.912 18.6548 562.025 18.331C562.142 18.0071 562.2 17.6463 562.2 17.2486C562.2 16.848 562.142 16.4858 562.025 16.1619C561.912 15.8352 561.739 15.5753 561.506 15.3821C561.273 15.1889 560.983 15.0923 560.636 15.0923C560.281 15.0923 559.986 15.1889 559.75 15.3821C559.517 15.5753 559.342 15.8352 559.226 16.1619C559.112 16.4858 559.055 16.848 559.055 17.2486C559.055 17.6463 559.112 18.0071 559.226 18.331C559.342 18.6548 559.517 18.9134 559.75 19.1065C559.986 19.2969 560.281 19.392 560.636 19.392ZM568.462 13.9545V15.1477H564.699V13.9545H568.462ZM565.628 12.3864H567.171V18.5312C567.171 18.7386 567.202 18.8977 567.264 19.0085C567.33 19.1165 567.415 19.1903 567.52 19.2301C567.625 19.2699 567.742 19.2898 567.87 19.2898C567.966 19.2898 568.054 19.2827 568.134 19.2685C568.216 19.2543 568.279 19.2415 568.321 19.2301L568.581 20.4361C568.499 20.4645 568.381 20.4957 568.227 20.5298C568.077 20.5639 567.892 20.5838 567.674 20.5895C567.287 20.6009 566.939 20.5426 566.629 20.4148C566.32 20.2841 566.074 20.0824 565.892 19.8097C565.713 19.5369 565.625 19.196 565.628 18.7869V12.3864ZM570.831 22.9545C570.621 22.9545 570.426 22.9375 570.247 22.9034C570.071 22.8722 569.93 22.8352 569.825 22.7926L570.183 21.5909C570.408 21.6563 570.608 21.6875 570.784 21.6847C570.96 21.6818 571.115 21.6264 571.248 21.5185C571.385 21.4134 571.5 21.2372 571.594 20.9901L571.726 20.6364L569.352 13.9545H570.988L572.497 18.8977H572.565L574.078 13.9545H575.719L573.098 21.2926C572.976 21.6392 572.814 21.9361 572.612 22.1832C572.41 22.4332 572.163 22.6236 571.871 22.7543C571.581 22.8878 571.234 22.9545 570.831 22.9545ZM576.906 22.9545V13.9545H578.423V15.0369H578.513C578.592 14.8778 578.704 14.7088 578.849 14.5298C578.994 14.348 579.19 14.1932 579.437 14.0653C579.684 13.9347 580 13.8693 580.383 13.8693C580.889 13.8693 581.345 13.9986 581.751 14.2571C582.16 14.5128 582.484 14.892 582.723 15.3949C582.964 15.8949 583.085 16.5085 583.085 17.2358C583.085 17.9545 582.967 18.5653 582.731 19.0682C582.496 19.571 582.175 19.9545 581.768 20.2188C581.362 20.483 580.902 20.6151 580.388 20.6151C580.013 20.6151 579.702 20.5526 579.454 20.4276C579.207 20.3026 579.008 20.152 578.858 19.9759C578.71 19.7969 578.595 19.6278 578.513 19.4688H578.449V22.9545H576.906ZM578.419 17.2273C578.419 17.6506 578.478 18.0213 578.598 18.3395C578.72 18.6577 578.895 18.9062 579.122 19.0852C579.352 19.2614 579.63 19.3494 579.957 19.3494C580.298 19.3494 580.584 19.2585 580.814 19.0767C581.044 18.892 581.217 18.6406 581.334 18.3224C581.453 18.0014 581.513 17.6364 581.513 17.2273C581.513 16.821 581.454 16.4602 581.338 16.1449C581.221 15.8295 581.048 15.5824 580.818 15.4034C580.588 15.2244 580.301 15.1349 579.957 15.1349C579.628 15.1349 579.348 15.2216 579.118 15.3949C578.888 15.5682 578.713 15.8111 578.594 16.1236C578.477 16.4361 578.419 16.804 578.419 17.2273ZM587.424 20.6278C586.768 20.6278 586.201 20.4915 585.723 20.2188C585.249 19.9432 584.884 19.554 584.628 19.0511C584.373 18.5455 584.245 17.9503 584.245 17.2656C584.245 16.5923 584.373 16.0014 584.628 15.4929C584.887 14.9815 585.248 14.5838 585.711 14.2997C586.174 14.0128 586.718 13.8693 587.343 13.8693C587.746 13.8693 588.127 13.9347 588.485 14.0653C588.846 14.1932 589.164 14.392 589.439 14.6619C589.718 14.9318 589.937 15.2756 590.096 15.6932C590.255 16.108 590.334 16.6023 590.334 17.1761V17.6491H584.969V16.6094H588.856C588.853 16.3139 588.789 16.0511 588.664 15.821C588.539 15.5881 588.364 15.4048 588.14 15.2713C587.918 15.1378 587.66 15.071 587.364 15.071C587.049 15.071 586.772 15.1477 586.533 15.3011C586.295 15.4517 586.108 15.6506 585.975 15.8977C585.844 16.142 585.777 16.4105 585.775 16.7031V17.6108C585.775 17.9915 585.844 18.3182 585.983 18.5909C586.123 18.8608 586.317 19.0682 586.567 19.2131C586.817 19.3551 587.11 19.4261 587.445 19.4261C587.67 19.4261 587.873 19.3949 588.054 19.3324C588.236 19.267 588.394 19.1719 588.527 19.0469C588.661 18.9219 588.762 18.767 588.83 18.5824L590.27 18.7443C590.179 19.125 590.006 19.4574 589.75 19.7415C589.498 20.0227 589.174 20.2415 588.779 20.3977C588.384 20.5511 587.932 20.6278 587.424 20.6278Z" fill="black" fill-opacity="0.87"/>
<rect x="648" width="152" height="32" rx="4" fill="#FBDAF0"/>
<path d="M711.477 13.098V11.7727H718.44V13.098H715.743V20.5H714.175V13.098H711.477ZM721.783 20.6278C721.127 20.6278 720.56 20.4915 720.083 20.2188C719.608 19.9432 719.243 19.554 718.988 19.0511C718.732 18.5455 718.604 17.9503 718.604 17.2656C718.604 16.5923 718.732 16.0014 718.988 15.4929C719.246 14.9815 719.607 14.5838 720.07 14.2997C720.533 14.0128 721.077 13.8693 721.702 13.8693C722.105 13.8693 722.486 13.9347 722.844 14.0653C723.205 14.1932 723.523 14.392 723.799 14.6619C724.077 14.9318 724.296 15.2756 724.455 15.6932C724.614 16.108 724.694 16.6023 724.694 17.1761V17.6491H719.328V16.6094H723.215C723.212 16.3139 723.148 16.0511 723.023 15.821C722.898 15.5881 722.723 15.4048 722.499 15.2713C722.277 15.1378 722.019 15.071 721.723 15.071C721.408 15.071 721.131 15.1477 720.892 15.3011C720.654 15.4517 720.468 15.6506 720.334 15.8977C720.203 16.142 720.137 16.4105 720.134 16.7031V17.6108C720.134 17.9915 720.203 18.3182 720.343 18.5909C720.482 18.8608 720.676 19.0682 720.926 19.2131C721.176 19.3551 721.469 19.4261 721.804 19.4261C722.029 19.4261 722.232 19.3949 722.414 19.3324C722.595 19.267 722.753 19.1719 722.887 19.0469C723.02 18.9219 723.121 18.767 723.189 18.5824L724.63 18.7443C724.539 19.125 724.365 19.4574 724.11 19.7415C723.857 20.0227 723.533 20.2415 723.138 20.3977C722.743 20.5511 722.292 20.6278 721.783 20.6278ZM731.292 15.6847L729.886 15.8381C729.846 15.696 729.776 15.5625 729.677 15.4375C729.58 15.3125 729.45 15.2116 729.285 15.1349C729.12 15.0582 728.918 15.0199 728.68 15.0199C728.359 15.0199 728.089 15.0895 727.87 15.2287C727.654 15.3679 727.548 15.5483 727.55 15.7699C727.548 15.9602 727.617 16.1151 727.759 16.2344C727.904 16.3537 728.143 16.4517 728.475 16.5284L729.592 16.767C730.211 16.9006 730.671 17.1122 730.972 17.402C731.276 17.6918 731.43 18.071 731.432 18.5398C731.43 18.9517 731.309 19.3153 731.07 19.6307C730.834 19.9432 730.506 20.1875 730.086 20.3636C729.665 20.5398 729.182 20.6278 728.637 20.6278C727.836 20.6278 727.191 20.4602 726.702 20.125C726.214 19.7869 725.923 19.3168 725.829 18.7145L727.333 18.5696C727.401 18.8651 727.546 19.0881 727.768 19.2386C727.989 19.3892 728.278 19.4645 728.633 19.4645C728.999 19.4645 729.293 19.3892 729.515 19.2386C729.739 19.0881 729.852 18.902 729.852 18.6804C729.852 18.4929 729.779 18.3381 729.634 18.2159C729.492 18.0937 729.271 18 728.969 17.9347L727.853 17.7003C727.225 17.5696 726.761 17.3494 726.459 17.0398C726.158 16.7273 726.009 16.3324 726.012 15.8551C726.009 15.4517 726.119 15.1023 726.34 14.8068C726.565 14.5085 726.876 14.2784 727.273 14.1165C727.674 13.9517 728.136 13.8693 728.658 13.8693C729.425 13.8693 730.029 14.0327 730.469 14.3594C730.913 14.6861 731.187 15.1278 731.292 15.6847ZM736.093 13.9545V15.1477H732.33V13.9545H736.093ZM733.259 12.3864H734.802V18.5312C734.802 18.7386 734.833 18.8977 734.896 19.0085C734.961 19.1165 735.046 19.1903 735.151 19.2301C735.256 19.2699 735.373 19.2898 735.501 19.2898C735.597 19.2898 735.685 19.2827 735.765 19.2685C735.847 19.2543 735.91 19.2415 735.952 19.2301L736.212 20.4361C736.13 20.4645 736.012 20.4957 735.859 20.5298C735.708 20.5639 735.523 20.5838 735.305 20.5895C734.918 20.6009 734.57 20.5426 734.261 20.4148C733.951 20.2841 733.705 20.0824 733.523 19.8097C733.344 19.5369 733.256 19.196 733.259 18.7869V12.3864Z" fill="black" fill-opacity="0.87"/>
</svg>
